<svg xmlns="http://www.w3.org/2000/svg" width="67.708" height="70.382" viewBox="0 0 67.708 70.382"><defs><style>.a{fill:#e82d56;}.b{fill:#ff637b;}.c{fill:#ffda2d;}.d{fill:#fdd7ad;}.e{fill:#10afb5;}.f{fill:#0c7f84;}.g{fill:#f09372;}</style></defs><g transform="translate(-0.004 0.001)"><g transform="translate(0.004 -0.001)"><path class="a" d="M32.178,47.456l12.911-9.191a12.221,12.221,0,0,0,5.162-9.951V9.406a.584.584,0,0,0-.35-.536L31.8,1.048a.584.584,0,0,0-.467,0l-18.1,7.823a.584.584,0,0,0-.35.536V28.321a12.218,12.218,0,0,0,5.163,9.951l12.911,9.191A1.051,1.051,0,0,0,32.178,47.456Z" transform="translate(2.155 -0.999)"/><path class="b" d="M20.089,33.736a7.574,7.574,0,0,1-3.2-6.146V11.368L30.9,5.317,44.91,11.368V27.6a7.573,7.573,0,0,1-3.2,6.146l-10.81,7.7Z" transform="translate(2.825 -0.276)"/><path class="c" d="M27.533,29.35a1.168,1.168,0,0,1-.7-.234l-5.337-4a1.168,1.168,0,0,1,1.4-1.868l4.437,3.325L37.3,14.11a1.168,1.168,0,1,1,1.825,1.458L28.45,28.909A1.167,1.167,0,0,1,27.533,29.35Z" transform="translate(3.518 1.124)"/><path class="d" d="M15.546,46.172l-5.333-5.335a12.726,12.726,0,0,1-2.7-3.982L4.9,30.761a2.553,2.553,0,1,0-4.67,2.064L4.808,42.892a11.317,11.317,0,0,0,2.3,3.316l8.44,8.443H26.853V51.31a11.039,11.039,0,0,0-2.3-6.918,7.294,7.294,0,0,0-3.35-2.46,25.05,25.05,0,0,1-7.067-4.5,4.185,4.185,0,0,0-5.649.262" transform="translate(-0.004 3.728)"/><path class="d" d="M46.3,46.172l5.335-5.335a12.726,12.726,0,0,0,2.7-3.982l2.614-6.093a2.553,2.553,0,1,1,4.67,2.064L57.045,42.892a11.317,11.317,0,0,1-2.3,3.316L46.3,54.65H35V51.31a11.039,11.039,0,0,1,2.3-6.918,7.294,7.294,0,0,1,3.35-2.46,25.047,25.047,0,0,0,7.066-4.5,4.187,4.187,0,0,1,5.65.262" transform="translate(5.859 3.728)"/><rect class="e" width="14" height="12" rx="1" transform="translate(53 70.382) rotate(180)"/><path class="f" d="M38.335,57.335H37.168a1.168,1.168,0,1,1,0-2.335h1.168a1.168,1.168,0,1,1,0,2.335Z" transform="translate(6.027 8.048)"/><rect class="e" width="15" height="12" rx="1" transform="translate(14 58.382)"/><path class="f" d="M21.335,57.335H20.168a1.168,1.168,0,1,1,0-2.335h1.168a1.168,1.168,0,1,1,0,2.335Z" transform="translate(3.179 8.048)"/><path class="g" d="M16.257,45.394a1.184,1.184,0,0,1-1.658,0L9.263,40.058a13.93,13.93,0,0,1-2.032-2.58c-.105-.175-.2-.339-.292-.514l.444-.409a4.018,4.018,0,0,1,1.483-.946,11.475,11.475,0,0,0,2.055,2.8l5.336,5.324A1.177,1.177,0,0,1,16.257,45.394Z" transform="translate(1.158 4.8)"/><path class="g" d="M43.207,45.394a1.184,1.184,0,0,0,1.658,0L50.2,40.058a13.929,13.929,0,0,0,2.032-2.58c.105-.175.2-.339.292-.514l-.444-.409A4.018,4.018,0,0,0,50.6,35.61a11.473,11.473,0,0,1-2.055,2.8l-5.336,5.324A1.177,1.177,0,0,0,43.207,45.394Z" transform="translate(7.177 4.8)"/></g></g></svg>