<svg xmlns="http://www.w3.org/2000/svg" width="75.061" height="79.31" viewBox="0 0 75.061 79.31"><defs><style>.a{fill:#3b9cb7;}.b{fill:#55d485;}.c{fill:#f75454;}.d{fill:#bce6f5;}.e{fill:#fff;}</style></defs><g transform="translate(-26.25)"><g transform="translate(26.25 8.498)"><path class="a" d="M97.062,87.907A35.387,35.387,0,0,1,79.1,118.724v0a35.478,35.478,0,0,1-30.53,2.087h0a35.416,35.416,0,1,1,48.5-32.906Z" transform="translate(-26.25 -52.501)"/><path class="b" d="M255.264,97.882A35.387,35.387,0,0,1,237.3,128.7c-6.171-12.568-20.522-1.444-22.191-17.124S232.291,101.4,237.8,95.893s0-14.014-4.671-9.343-11.678,3.337-10.01-1.335,9.676-6.673,3.915-8.675,0-7.763,4.373-12.136l0,0A35.512,35.512,0,0,1,252.1,83.234c-4.293,0-8.3,7.321-4.293,11.324a11.138,11.138,0,0,0,7.456,2.961C255.264,97.639,255.264,97.762,255.264,97.882Z" transform="translate(-184.452 -62.476)"/><path class="b" d="M48.565,173.038h0a35.414,35.414,0,0,1-11.652-58.226c9.654,2.313,11.322,8.984,4.983,11.32-6.248,2.3-6.662,6.549-.287,8.586.1.031.189.06.287.089,4.509,1.353,2.772,5.6-.581,8.215a9.276,9.276,0,0,1-5.425,2.129c-5.672,0-1,11.511,5.839,11.511S48.565,173.038,48.565,173.038Z" transform="translate(-26.25 -104.727)"/><path class="b" d="M48.565,173.038h0a35.414,35.414,0,0,1-11.652-58.226c9.654,2.313,11.322,8.984,4.983,11.32-6.248,2.3-6.662,6.549-.287,8.586a35.607,35.607,0,0,0-.411,5.414q0,1.458.118,2.889a9.276,9.276,0,0,1-5.425,2.129c-5.672,0-1,11.511,5.839,11.511S48.565,173.038,48.565,173.038Z" transform="translate(-26.25 -104.727)"/></g><g transform="translate(70.404)"><path class="c" d="M314.5,46.291l13.363-23.146A15.431,15.431,0,0,0,314.5,0h0a15.43,15.43,0,0,0-13.363,23.146Z" transform="translate(-299.048)"/><path class="d" d="M360.936,53.708A8.036,8.036,0,1,1,354.8,45.9,8.042,8.042,0,0,1,360.936,53.708Z" transform="translate(-337.444 -38.278)"/><path class="e" d="M380.6,54.881a8.042,8.042,0,0,1-6.141,7.813,8.04,8.04,0,0,1,0-15.624A8.041,8.041,0,0,1,380.6,54.881Z" transform="translate(-357.107 -39.451)"/></g></g></svg>