<svg xmlns="http://www.w3.org/2000/svg" width="70.383" height="70.383" viewBox="0 0 70.383 70.383"><defs><style>.a{fill:#f2b233;}.b{fill:#dd981d;}.c{fill:#fff;}.d{fill:#ffda2d;}.e{fill:#fdbf00;}.f{fill:#ff9100;}</style></defs><g transform="translate(0 0)"><path class="a" d="M26.944,169.6a19.817,19.817,0,0,0-2.186.082h-.124C11.108,170.963,0,183.8,0,198.112c0,16.62,15.438,18.558,26.943,18.558,11.424,0,24.744-1.732,26.6-15.382,1.938-16-10.764-31.686-26.6-31.686Zm0,0" transform="translate(0 -146.288)"/><path class="b" d="M222.6,201.288c-1.856,13.65-15.176,15.382-26.6,15.382V169.6C211.836,169.6,224.538,185.287,222.6,201.288Zm0,0" transform="translate(-169.056 -146.288)"/><path class="a" d="M119.713,6.846l-4.124,12.509H95.217L91.093,6.846A1.988,1.988,0,0,1,91.34,4.99a2.15,2.15,0,0,1,1.691-.866h6.557a6.162,6.162,0,0,1,11.63,0h6.557a2.15,2.15,0,0,1,1.691.866,1.988,1.988,0,0,1,.247,1.856Zm0,0" transform="translate(-78.459 0)"/><path class="b" d="M210.31,6.846l-4.124,12.509H196V0a6.207,6.207,0,0,1,5.815,4.124h6.557a2.15,2.15,0,0,1,1.691.866,1.988,1.988,0,0,1,.247,1.856Zm0,0" transform="translate(-169.057)"/><path class="c" d="M163.071,261.177a6.116,6.116,0,0,1-4.083,5.774v1.856a2.062,2.062,0,0,1-4.124,0v-1.814a6.245,6.245,0,0,1-4.165-5.815,2.068,2.068,0,0,1,2.062-2.062,2.042,2.042,0,0,1,2.062,2.062,2.1,2.1,0,0,0,2.062,2.062h.041a2.059,2.059,0,0,0,2.021-2.062,2.033,2.033,0,0,0-2.021-2.062h-.041a6.231,6.231,0,0,1-6.186-6.186,6.164,6.164,0,0,1,4.165-5.815v-3.052a2.062,2.062,0,1,1,4.124,0v3.052a6.17,6.17,0,0,1,4.083,5.815,2.068,2.068,0,0,1-2.062,2.062,2.1,2.1,0,0,1-2.062-2.062,2.033,2.033,0,0,0-2.021-2.062h-.041a2.068,2.068,0,0,0-2.062,2.062,2.1,2.1,0,0,0,2.062,2.062h.041A6.169,6.169,0,0,1,163.071,261.177Zm0,0" transform="translate(-129.983 -208.733)"/><path class="d" d="M330.005,276.124a4.136,4.136,0,0,1-4.124,4.124l-10.447,4.124-10.31-4.124a4.124,4.124,0,1,1,0-8.248h20.757A4.136,4.136,0,0,1,330.005,276.124Zm0,0" transform="translate(-259.622 -234.609)"/><path class="e" d="M420.571,276.124a4.136,4.136,0,0,1-4.124,4.124L406,284.372V272h10.447A4.136,4.136,0,0,1,420.571,276.124Zm0,0" transform="translate(-350.189 -234.609)"/><path class="e" d="M330.005,336.124a4.136,4.136,0,0,1-4.124,4.124l-10.447,4.124-10.31-4.124a4.124,4.124,0,1,1,0-8.248h20.757A4.136,4.136,0,0,1,330.005,336.124Zm0,0" transform="translate(-259.622 -286.361)"/><path class="f" d="M420.571,336.124a4.136,4.136,0,0,1-4.124,4.124L406,344.372V332h10.447A4.136,4.136,0,0,1,420.571,336.124Zm0,0" transform="translate(-350.189 -286.361)"/><path class="d" d="M330.005,396.124a4.136,4.136,0,0,1-4.124,4.124l-10.447,4.124-10.31-4.124a4.124,4.124,0,1,1,0-8.248h20.757A4.136,4.136,0,0,1,330.005,396.124Zm0,0" transform="translate(-259.622 -338.113)"/><path class="e" d="M420.571,396.124a4.136,4.136,0,0,1-4.124,4.124L406,404.372V392h10.447A4.136,4.136,0,0,1,420.571,396.124Zm0,0" transform="translate(-350.189 -338.113)"/><path class="e" d="M330.005,456.124a4.136,4.136,0,0,1-4.124,4.124H305.124a4.124,4.124,0,1,1,0-8.248h20.757A4.136,4.136,0,0,1,330.005,456.124Zm0,0" transform="translate(-259.622 -389.866)"/><path class="f" d="M420.571,456.124a4.136,4.136,0,0,1-4.124,4.124H406V452h10.447A4.136,4.136,0,0,1,420.571,456.124Zm0,0" transform="translate(-350.189 -389.866)"/><path class="d" d="M119.868,125.124a4.136,4.136,0,0,1-4.124,4.124H95.124a4.124,4.124,0,0,1,0-8.248h20.62A4.136,4.136,0,0,1,119.868,125.124Zm0,0" transform="translate(-78.49 -104.367)"/><g transform="translate(26.944 16.633)"><path class="c" d="M202.144,342.686a6.116,6.116,0,0,1-4.083,5.774v1.856A2.042,2.042,0,0,1,196,352.377v-7.629a2.059,2.059,0,0,0,2.021-2.062A2.033,2.033,0,0,0,196,340.624V336.5A6.169,6.169,0,0,1,202.144,342.686Zm0,0" transform="translate(-196 -306.876)"/><path class="c" d="M202.144,252.929a2.068,2.068,0,0,1-2.062,2.062,2.1,2.1,0,0,1-2.062-2.062A2.033,2.033,0,0,0,196,250.867V242a2.042,2.042,0,0,1,2.062,2.062v3.052A6.17,6.17,0,0,1,202.144,252.929Zm0,0" transform="translate(-196 -225.367)"/><path class="e" d="M210.434,125.124a4.136,4.136,0,0,1-4.124,4.124H196V121h10.31A4.136,4.136,0,0,1,210.434,125.124Zm0,0" transform="translate(-196 -121)"/></g></g></svg>