<svg xmlns="http://www.w3.org/2000/svg" width="67.549" height="70.486" viewBox="0 0 67.549 70.486"><defs><style>.a{fill:#ffa000;}.b{fill:#ffc107;}.c{fill:#e82d56;}</style></defs><path class="a" d="M151.5,353.08a11.748,11.748,0,1,1-11.748-11.748A11.748,11.748,0,0,1,151.5,353.08Zm0,0" transform="translate(-110.379 -294.342)"/><path class="b" d="M49.951,71.805a20.51,20.51,0,0,1-15.9-28.58,20.489,20.489,0,0,0-25.237,20v8.188A19.692,19.692,0,0,1,1.8,86.49a5.139,5.139,0,0,0,3.342,9.043H53.6a5.14,5.14,0,0,0,3.313-9.069,19.665,19.665,0,0,1-6.961-14.658Zm0,0" transform="translate(0 -36.794)"/><path class="c" d="M306.7,14.685A14.685,14.685,0,1,1,292.017,0,14.684,14.684,0,0,1,306.7,14.685Zm0,0" transform="translate(-239.152)"/></svg>